/* XPM */
static const char *cG9r[] = {
/* columns rows colors chars-per-pixel */
"32 32 9 1 ",
"  c black",
". c #501000",
"X c #484878",
"o c #903828",
"O c #C86048",
"+ c #9898B8",
"@ c #C8C8D8",
"# c #F8F8F8",
"$ c None",
/* pixels */
"$$$$$$$$$$$$$$$$$$$$$$$$$$$$$$$$",
"$$$$$$$$$$$$$$$$$$$$$$$$$$$$$$$$",
"$$$$$$$$$$$$$$$$$$$$$$$$$$$$$$$$",
"$$$$$$$$$$$$$$$$$$$$$$$$$$$$$$$$",
"$$$$$$$$$$$$$$$$$$$$$$$$$$$$$$$$",
"$$$$$$$$$$$$$$$$$$$$$$$$$$$$$$$$",
"$$$$$$$$$$$$........$$$$$$$$$$$$",
"$$$$$$$$$$$$........$$$$$$$$$$$$",
"$$$$$$$$$$..OOOOOOOO..$$$$$$$$$$",
"$$$$$$$$$$..OOOOOOOO..$$$$$$$$$$",
"$$$$$$$$..OO##OOooooOO..$$$$$$$$",
"$$$$$$$$..OO##OOooooOO..$$$$$$$$",
"$$$$$$..OOooOOooooooooOO..$$$$$$",
"$$$$$$..OOooOOooooooooOO..$$$$$$",
"$$$$$$  OOoooo    ooooOO  $$$$$$",
"$$$$$$  OOoooo    ooooOO  $$$$$$",
"$$$$$$XX  oo  ++++  oo  XX$$$$$$",
"$$$$$$XX  oo  ++++  oo  XX$$$$$$",
"$$$$$$XX##    ++++    ##XX$$$$$$",
"$$$$$$XX##    ++++    ##XX$$$$$$",
"$$$$$$$$XX####    ####XX$$$$$$$$",
"$$$$$$$$XX####    ####XX$$$$$$$$",
"$$$$$$$$$$XX@@####@@XX$$$$$$$$$$",
"$$$$$$$$$$XX@@####@@XX$$$$$$$$$$",
"$$$$$$$$$$$$XXXXXXXX$$$$$$$$$$$$",
"$$$$$$$$$$$$XXXXXXXX$$$$$$$$$$$$",
"$$$$$$$$$$$$$$$$$$$$$$$$$$$$$$$$",
"$$$$$$$$$$$$$$$$$$$$$$$$$$$$$$$$",
"$$$$$$$$$$$$$$$$$$$$$$$$$$$$$$$$",
"$$$$$$$$$$$$$$$$$$$$$$$$$$$$$$$$",
"$$$$$$$$$$$$$$$$$$$$$$$$$$$$$$$$",
"$$$$$$$$$$$$$$$$$$$$$$$$$$$$$$$$"
};
