/* XPM */
static char *_a07284aa1564b40caf1e7d158c417d31VJddsXskxTebfHm[] = {
/* columns rows colors chars-per-pixel */
"26 29 9 1 ",
"  c None",
". c #283058",
"X c #404868",
"o c #585870",
"O c #606078",
"+ c #489080",
"@ c #60C0B0",
"# c #A0A0A8",
"$ c #C0F0E0",
/* pixels */
"     @@@@@@@@@@@@@@@@     ",
"    $@@@@@@@@@@@@@@@@+    ",
"   $$@@@@@@@@@@@@@@@@++   ",
"  $$$@@@@@@@@@@@@@@@@+++  ",
" $$$@@@@@@@@@@@@@@@@@@+++ ",
"X$$@@++++++++++++++++@@++X",
"X$@@+++++++@@@@+++++++@@+X",
"X@@+++++++@@++@@+++++++@@X",
"X@++++++++++@@++++++++++@X",
"X@++++++++@+@@+@++++++++@X",
"X@++++++++@@++@@++++++++@X",
"X@+++++++++@@@@+++++++++@X",
"X@++XXXXXXXXXXXXXXXXXX++@X",
"o@++X................X++@o",
"o@++X................X++@o",
"o@++X................X++@o",
"o@++X................X++@o",
"o@++X................X++@o",
"o@++X................X++@o",
"o@++X................X++@o",
"o@++X................X++@o",
"o@++X................X++@o",
"o@++X................X++@o",
"o@++X................X++@o",
"o@++X.OOOOO#########.X++@o",
"o@++X................X++@o",
"o@++XOOO#############X++@o",
"o@++XOO##############X++@o",
"o@++XOOOOOOOOOOOOOOOOX++@o"
};
