/* XPM */
static char *e78b7dbc5bb04f59f907eb1518c4c693BF5YhhAqkCLlYieV[] = {
/* columns rows colors chars-per-pixel */
"32 32 3 1 ",
"  c #40B080",
". c #70C0A0",
"X c #A0D0C0",
/* pixels */
".. .......... .X.. .......... .X",
"................................",
". ....... ...X... ....... ...X..",
"..... ..XX........... ..XX......",
"....... XX............. XX......",
"...............X...............X",
"..XX..............XX............",
"..XX........... ..XX........... ",
"..... .X.. .......... .X.. .....",
"................................",
". ...X... ....... ...X... ......",
"XX........... ..XX........... ..",
"XX............. XX............. ",
".......X...............X........",
"..........XX..............XX....",
"....... ..XX........... ..XX....",
".. .......... .X.. .......... .X",
"................................",
". ....... ...X... ....... ...X..",
"..... ..XX........... ..XX......",
"....... XX............. XX......",
"...............X...............X",
"..XX..............XX............",
"..XX........... ..XX........... ",
"..... .X.. .......... .X.. .....",
"................................",
". ...X... ....... ...X... ......",
"XX........... ..XX........... ..",
"XX............. XX............. ",
".......X...............X........",
"..........XX..............XX....",
"....... ..XX........... ..XX...."
};
