/* XPM */
static char *_e12c827db194eeefb4d7fd0667ab9aeInXUhZyQykPqWrUa[] = {
/* columns rows colors chars-per-pixel */
"32 32 15 1 ",
"  c None",
". c black",
"X c #232828",
"o c #600018",
"O c #677D3F",
"+ c #4D5051",
"@ c #784040",
"# c #CE2110",
"$ c #F75242",
"% c #7EB335",
"& c #D89070",
"* c #214FD8",
"= c #F8C090",
"- c #939FE9",
"; c #EFEFFB",
/* pixels */
"                                ",
"                                ",
"                                ",
"                                ",
"                                ",
"                                ",
"                                ",
"                                ",
"                                ",
"                                ",
"           ........             ",
"          .X;;;;;;X.            ",
"          .;;;;;;;;X            ",
"         .#;;$$$$;.;Xo          ",
"       ...##$$$$$$..#$o         ",
"        ..###########$o         ",
"       .+..##########$o         ",
"        ....o####o##$o          ",
"       ......oooooooo           ",
"        ....&=.&&.&&@           ",
"          ..&=&&=@=@..          ",
"          ..@@&&&&@@X.          ",
"         .+%%%o**...#.          ",
"         .$X%%.;;;&&.+.         ",
"         .O%%*.;;;&=.+.         ",
"         X.%..**....$..XX       ",
"        X......***..$....X      ",
"       X.####$..--X..$#;#.X     ",
"       .+.;$$...XX.+.;$;.+.     ",
"       .+#.;.#+....+#.;.#+.     ",
"        .+++++.    .+++++.      ",
"         .....      .....       "
};
