/* XPM */
static char *_5f7d0648f7f4223db4f7ff59afc4f79qTtPbUNdzrhh7bEX[] = {
/* columns rows colors chars-per-pixel */
"32 32 9 1 ",
"  c #404868",
". c #887048",
"X c #40A070",
"o c #A8A068",
"O c #00D098",
"+ c #9088A0",
"@ c #A098A0",
"# c #D8C890",
"$ c white",
/* pixels */
"$$                          @@$$",
"$$                          @@$$",
"  ##########################  $$",
"  ##########################  $$",
"  ##oooo..............oooo##  @@",
"  ##oooo..............oooo##  @@",
"  ##..######oooooo######..##  @@",
"  ##..######oooooo######..##  @@",
"  ##......##########......##  @@",
"  ##......##########......##  @@",
"  ##..oooooo########oooo..##  ++",
"  ##..oooooo########oooo..##  ++",
"  ##..######....oo######..##  ++",
"  ##..######....oo######..##  ++",
"  ##oo..................oo##  ++",
"  ##oo..................oo##  ++",
"  ##########################  ++",
"  ##########################  ++",
"  ..........................  ++",
"  ..........................  ++",
"  ....XXXXXXXXXXXXXXXXXX....  ++",
"  ....XXXXXXXXXXXXXXXXXX....  ++",
"  ....XXOOOOXXOOXXXXOOXX....  ++",
"  ....XXOOOOXXOOXXXXOOXX....  ++",
"  ....XXOOOOXXOOXXOOOOXX....  ++",
"  ....XXOOOOXXOOXXOOOOXX....  ++",
"  ....XXXXXXXXXXXXXXXXXX....  ++",
"  ....XXXXXXXXXXXXXXXXXX....  ++",
"  ..........................  ++",
"  ..........................  ++",
"                              ++",
"                              ++"
};
